<?xml version="1.0" encoding="UTF-8" standalone="no"?>
<!-- Generator: Adobe Illustrator 16.0.0, SVG Export Plug-In . SVG Version: 6.00 Build 0)  -->

<svg
   xmlns:dc="http://purl.org/dc/elements/1.1/"
   xmlns:cc="http://creativecommons.org/ns#"
   xmlns:rdf="http://www.w3.org/1999/02/22-rdf-syntax-ns#"
   xmlns:svg="http://www.w3.org/2000/svg"
   xmlns="http://www.w3.org/2000/svg"
   xmlns:sodipodi="http://sodipodi.sourceforge.net/DTD/sodipodi-0.dtd"
   xmlns:inkscape="http://www.inkscape.org/namespaces/inkscape"
   version="1.1"
   id="Ebene_1"
   x="0px"
   y="0px"
   width="64px"
   height="64px"
   viewBox="0 0 64 64"
   enable-background="new 0 0 64 64"
   xml:space="preserve"
   sodipodi:docname="myLocation_color.svg"
   inkscape:version="0.92.3 (2405546, 2018-03-11)"><metadata
   id="metadata7434"><rdf:RDF><cc:Work
       rdf:about=""><dc:format>image/svg+xml</dc:format><dc:type
         rdf:resource="http://purl.org/dc/dcmitype/StillImage" /><dc:title></dc:title></cc:Work></rdf:RDF></metadata><defs
   id="defs7432" /><sodipodi:namedview
   pagecolor="#ffffff"
   bordercolor="#666666"
   borderopacity="1"
   objecttolerance="10"
   gridtolerance="10"
   guidetolerance="10"
   inkscape:pageopacity="0"
   inkscape:pageshadow="2"
   inkscape:window-width="1451"
   inkscape:window-height="825"
   id="namedview7430"
   showgrid="false"
   inkscape:zoom="3.6875"
   inkscape:cx="-12.610169"
   inkscape:cy="32"
   inkscape:window-x="375"
   inkscape:window-y="70"
   inkscape:window-maximized="0"
   inkscape:current-layer="Ebene_1" />
<path
   style="fill:#ff0000;stroke:none;stroke-width:1px;stroke-linecap:butt;stroke-linejoin:miter;stroke-opacity:1;fill-opacity:1"
   d="M 31.971,58.898 24.949153,53.966102 14.372881,35.79661 10.305085,20.067797 18.169492,7.5932203 27.661017,1.8983051 h 6.508475 l 8.406779,2.9830508 7.050848,5.6949151 2.440678,5.966102 1.084745,7.59322 L 50.983051,32 45.559322,43.932203 39.59322,52.610169 Z"
   id="path7981"
   inkscape:connector-curvature="0" /><path
   style="fill:#0000ff;stroke:none;stroke-width:1px;stroke-linecap:butt;stroke-linejoin:miter;stroke-opacity:1;fill-opacity:1"
   d="M 29.288136,28.474576 26.305085,26.033898 28,23 l -0.881356,-4.016949 3.79661,-2.711865 3.79661,0.81356 2.440678,3.254237 -0.271186,5.152542 -1.898305,2.983051 z"
   id="path7983"
   inkscape:connector-curvature="0" /><g
   id="g7427">
	<path
   d="M40,23c0-4.411-3.589-8-8-8s-8,3.589-8,8s3.589,8,8,8S40,27.411,40,23z M28,23c0-2.206,1.794-4,4-4s4,1.794,4,4   s-1.794,4-4,4S28,25.206,28,23z"
   id="path7423" />
	<path
   d="M31.966,64c0.574,0,1.12-0.247,1.5-0.677c0.882-1,21.605-24.682,21.534-40.298C54.942,10.329,44.625,0,32,0   C19.317,0,9,10.333,9,23.034c0,15.607,20.585,39.284,21.462,40.284C30.842,63.751,31.36,63.986,31.966,64z M32,4   c10.429,0,18.952,8.543,19,19.043c0.054,11.824-14.281,30.122-19.029,35.855C27.246,53.161,13,34.872,13,23.034   C13,12.539,21.523,4,32,4z"
   id="path7425" />
</g>
</svg>