<?xml version="1.0"?>
<svg xmlns="http://www.w3.org/2000/svg" viewBox="0 0 24 24">
    <path d="M 12 2 A 3 3 0 0 0 9 5 A 3 3 0 0 0 12 8 A 3 3 0 0 0 15 5 A 3 3 0 0 0 12 2 z M 12 9 C 6.5428 9 3.2480469 12.771484 3.2480469 12.771484 L 4.7519531 14.087891 C 4.7519531 14.087891 5.9277503 12.775301 8 11.861328 L 8 13.732422 C 7.6922912 14.284641 7 15.716606 7 17.5 C 7 19.950331 8.7773438 21.691406 8.7773438 21.691406 L 10.222656 20.308594 C 10.222656 20.308594 9 18.915669 9 17.5 C 9 17.223797 9.0320531 16.958359 9.0742188 16.701172 C 9.8066984 17.493514 10.844419 18 12 18 C 13.155581 18 14.193302 17.493514 14.925781 16.701172 C 14.967947 16.958359 15 17.223797 15 17.5 C 15 18.915669 13.777344 20.308594 13.777344 20.308594 L 15.222656 21.691406 C 15.222656 21.691406 17 19.950331 17 17.5 C 17 15.716606 16.307709 14.284641 16 13.732422 L 16 11.861328 C 18.07225 12.775301 19.248047 14.087891 19.248047 14.087891 L 20.751953 12.771484 C 20.751953 12.771484 17.4572 9 12 9 z M 10 13 L 14 13 L 14 14 C 14 15.116666 13.116666 16 12 16 C 10.883334 16 10 15.116666 10 14 L 10 13 z"/>
</svg>
